#!OML:ASF H:\ManfredETheater\Project 1\Capture day 1\Session 1\subject.ASF
:FULLY-SPECIFIED
:DEGREES
196
root -0.580562 17.5326 -28.0818 -169.806 -2.03096 -176.949
lowerback 3.85694 3.37825 4.95212
upperback -2.97474 4.77435 0.583478
thorax -4.89508 2.17034 -2.52534
lowerneck -17.9333 -4.51904 -5.75642
upperneck 14.1884 -5.02626 1.85294
head 7.50078 -2.55233 0.952148
rclavicle -2.43014e-014 -1.19271e-014
rhumerus -40.7527 34.1902 -103.246
rradius 120.585
rwrist -4.5974
rhand -20.3272 16.7591
rfingers 7.12502
rthumb 6.02391 -13.1353
lclavicle -2.43014e-014 -1.19271e-014
lhumerus -83.1374 -9.20255 94.3263
lradius 107.94
lwrist 18.6479
lhand -20.9141 -13.5983
lfingers 7.12502
lthumb 5.45733 16.3115
rfemur 19.0362 1.02638 31.3017
rtibia 15.5671
rfoot 21.6057 0.550941
rtoes -18.0729
lfemur -53.7136 -0.152401 -19.5563
ltibia 42.8296
lfoot -16.3615 -11.4063
ltoes -13.8957
197
root -0.56994 17.5393 -28.5763 -169.988 -1.9327 -176.798
lowerback 3.94706 3.41089 5.00358
upperback -2.91838 4.82742 0.618901
thorax -4.88235 2.19714 -2.52476
lowerneck -18.0897 -4.54469 -5.82054
upperneck 14.3581 -5.02499 1.77603
head 7.58326 -2.56334 0.932735
rclavicle -1.01877e-015 8.74653e-015
rhumerus -41.5881 34.5718 -103.747
rradius 120.624
rwrist -5.01651
rhand -20.264 16.7764
rfingers 7.12502
rthumb 6.0849 -13.1162
lclavicle -1.01877e-015 8.74653e-015
lhumerus -83.0962 -8.45692 94.1541
lradius 107.342
lwrist 17.7852
lhand -20.9167 -13.3391
lfingers 7.12502
lthumb 5.45481 16.5707
rfemur 17.5134 1.41973 31.2638
rtibia 20.299
rfoot 21.5569 1.32074
rtoes -16.6125
lfemur -52.6417 0.0735925 -19.8824
ltibia 40.4827
lfoot -16.5421 -11.2271
ltoes -14.4116
198
root -0.558605 17.534 -29.067 -170.2 -1.84904 -176.537
lowerback 4.09054 3.4137 5.133
upperback -2.85153 4.84916 0.712428
thorax -4.89034 2.2052 -2.50837
lowerneck -18.2858 -4.52923 -5.85643
upperneck 14.5574 -4.97042 1.6879
head 7.6794 -2.54876 0.910625
rclavicle -3.06377e-014 -1.03368e-014
rhumerus -42.3997 34.7049 -104.215
rradius 120.405
rwrist -5.28509
rhand -20.1889 16.7447
rfingers 7.12502
rthumb 6.15743 -13.1458
lclavicle -3.06377e-014 -1.03368e-014
lhumerus -82.9361 -7.68788 94.058
lradius 106.809
lwrist 16.7279
lhand -20.8863 -13.2269
lfingers 7.12502
lthumb 5.48416 16.6821
rfemur 15.9671 1.71819 31.3278
rtibia 25.112
rfoot 20.7746 1.75585
rtoes -15.7557
lfemur -51.6599 0.385498 -20.0986
ltibia 38.917
lfoot -16.6045 -10.8328
ltoes -14.7661
199
root -0.5466 17.517 -29.5545 -170.453 -1.78395 -176.191
lowerback 4.28621 3.38269 5.3219
upperback -2.76258 4.83301 0.851931
thorax -4.90714 2.1925 -2.47739
lowerneck -18.4974 -4.47503 -5.84139
upperneck 14.7435 -4.86995 1.57582
head 7.7703 -2.51185 0.878059
rclavicle 1.35671e-014 2.0276e-014
rhumerus -43.1474 34.591 -104.63
rradius 119.927
rwrist -5.3333
rhand -20.0736 16.6567
rfingers 7.12502
rthumb 6.26876 -13.2306
lclavicle 1.35671e-014 2.0276e-014
lhumerus -82.6416 -6.9068 94.0377
lradius 106.36
lwrist 15.611
lhand -20.8153 -13.2913
lfingers 7.12502
lthumb 5.55267 16.616
rfemur 14.4229 1.89122 31.4475
rtibia 29.942
rfoot 19.5949 1.72341
rtoes -15.5198
lfemur -50.7571 0.743014 -20.211
ltibia 38.1125
lfoot -16.4859 -10.3233
ltoes -15.2542
200
root -0.534202 17.4906 -30.0391 -170.754 -1.7475 -175.819
lowerback 4.54432 3.31497 5.52784
upperback -2.64804 4.77338 1.01315
thorax -4.9366 2.15777 -2.43335
lowerneck -18.7063 -4.38932 -5.78464
upperneck 14.8893 -4.73529 1.45935
head 7.84512 -2.45647 0.842203
rclavicle 6.41081e-015 -1.98785e-015
rhumerus -43.8147 34.2247 -104.984
rradius 119.197
rwrist -5.10099
rhand -19.9179 16.4991
rfingers 7.12502
rthumb 6.41907 -13.3837
lclavicle 6.41081e-015 -1.98785e-015
lhumerus -82.2037 -6.14302 94.0955
lradius 105.995
lwrist 14.5401
lhand -20.7211 -13.5117
lfingers 7.12502
lthumb 5.64364 16.3931
rfemur 12.8847 1.91102 31.5423
rtibia 34.7432
rfoot 18.289 1.24827
rtoes -16.0584
lfemur -49.9196 1.13128 -20.2817
ltibia 38.0127
lfoot -16.148 -9.82146
ltoes -16.2132
201
root -0.521392 17.4568 -30.5209 -171.117 -1.74876 -175.479
lowerback 4.88065 3.20778 5.70724
upperback -2.49913 4.66513 1.17147
thorax -4.9801 2.10033 -2.37756
lowerneck -18.896 -4.28024 -5.68702
upperneck 14.965 -4.58037 1.35123
head 7.89198 -2.38756 0.806279
rclavicle -2.47487e-014 2.10712e-014
rhumerus -44.3768 33.6108 -105.263
rradius 118.225
rwrist -4.58466
rhand -19.7263 16.2671
rfingers 7.12502
rthumb 6.60405 -13.61
lclavicle -2.47487e-014 2.10712e-014
lhumerus -81.6084 -5.42693 94.2404
lradius 105.718
lwrist 13.6289
lhand -20.6092 -13.8509
lfingers 7.12502
lthumb 5.75162 16.051
rfemur 11.3816 1.77342 31.5472
rtibia 39.4359
rfoot 17.0686 0.377983
rtoes -17.0925
lfemur -49.0849 1.51626 -20.3522
ltibia 38.487
lfoot -15.6182 -9.39896
ltoes -17.4379
202
root -0.507312 17.4175 -30.9985 -171.547 -1.80821 -175.254
lowerback 5.33924 3.05631 5.77062
upperback -2.3301 4.50005 1.30228
thorax -5.08267 2.01779 -2.28796
lowerneck -19.0346 -4.15537 -5.55837
upperneck 14.9523 -4.41673 1.25914
head 7.90019 -2.31029 0.77361
rclavicle -1.80894e-014 1.31198e-014
rhumerus -44.857 32.7478 -105.477
rradius 117.03
rwrist -3.81859
rhand -19.5053 15.9658
rfingers 7.12502
rthumb 6.8174 -13.9045
lclavicle -1.80894e-014 1.31198e-014
lhumerus -80.8712 -4.78637 94.4789
lradius 105.524
lwrist 12.9141
lhand -20.4808 -14.2479
lfingers 7.12502
lthumb 5.87562 15.6506
rfemur 9.86641 1.45721 31.37
rtibia 44.0747
rfoot 16.0031 -0.747098
rtoes -18.2259
lfemur -48.2556 1.79529 -20.4619
ltibia 39.5055
lfoot -14.9686 -9.17698
ltoes -18.2122
203
root -0.491263 17.3882 -31.4734 -172.034 -1.95546 -175.244
lowerback 5.91185 2.85557 5.6279
upperback -2.1402 4.26312 1.37033
thorax -5.24244 1.90648 -2.14755
lowerneck -19.0957 -4.02246 -5.40816
upperneck 14.8262 -4.25766 1.20377
head 7.85802 -2.22916 0.751419
rclavicle 2.23136e-014 1.98785e-014
rhumerus -45.2428 31.6481 -105.626
rradius 115.627
rwrist -2.88648
rhand -19.2584 15.6001
rfingers 7.12502
rthumb 7.05573 -14.2623
lclavicle 2.23136e-014 1.98785e-014
lhumerus -79.9793 -4.25549 94.8056
lradius 105.396
lwrist 12.4056
lhand -20.3342 -14.6415
lfingers 7.12502
lthumb 6.01714 15.2531
rfemur 8.32389 0.939728 30.8972
rtibia 48.6129
rfoot 15.1532 -1.99056
rtoes -19.09
lfemur -47.367 1.89604 -20.6834
ltibia 40.9382
lfoot -14.25 -9.16674
ltoes -18.2311
204
root -0.47317 17.3383 -31.9392 -172.548 -2.20018 -175.528
lowerback 6.56917 2.61192 5.20688
upperback -1.93041 3.95002 1.34612
thorax -5.44419 1.76757 -1.94177
lowerneck -19.0913 -3.88953 -5.23719
upperneck 14.5898 -4.11321 1.18612
head 7.76907 -2.14888 0.738445
rclavicle 6.79098e-014 1.27222e-014
rhumerus -45.5265 30.3298 -105.708
rradius 114.031
rwrist -1.89073
rhand -19.0043 15.1826
rfingers 7.12502
rthumb 7.30099 -14.6714
lclavicle 6.79098e-014 1.27222e-014
lhumerus -78.9104 -3.86168 95.2079
lradius 105.298
lwrist 12.0703
lhand -20.165 -15.008
lfingers 7.12502
lthumb 6.18054 14.8818
rfemur 6.7002 0.211876 30.0489
rtibia 53.1296
rfoot 14.359 -3.18985
rtoes -19.6737
lfemur -46.5494 1.74486 -21.0995
ltibia 42.7504
lfoot -13.4792 -9.3314
ltoes -16.8888
205
root -0.452265 17.2843 -32.3974 -173.059 -2.56969 -176.139
lowerback 7.31499 2.32404 4.46222
upperback -1.7233 3.54687 1.22596
thorax -5.71288 1.59448 -1.64436
lowerneck -19.0184 -3.75498 -5.05076
upperneck 14.2576 -3.97858 1.19688
head 7.63767 -2.06904 0.73271
rclavicle 6.70153e-014 1.37161e-014
rhumerus -45.7488 28.8153 -105.743
rradius 112.255
rwrist -0.937675
rhand -18.7671 14.7335
rfingers 7.12502
rthumb 7.52996 -15.1124
lclavicle 6.70153e-014 1.37161e-014
lhumerus -77.6753 -3.60667 95.6774
lradius 105.198
lwrist 11.8735
lhand -19.9858 -15.2938
lfingers 7.12502
lthumb 6.35348 14.5909
rfemur 4.96847 -0.736014 28.7811
rtibia 57.5785
rfoot 13.5127 -4.22629
rtoes -19.9568
lfemur -45.7241 1.30821 -21.7489
ltibia 44.7873
lfoot -12.8875 -9.6414
ltoes -14.1164
206
root -0.430073 17.2253 -32.8492 -173.527 -3.03204 -177.054
lowerback 8.09493 2.01174 3.42678
upperback -1.52271 3.06693 1.01526
thorax -6.01271 1.39311 -1.26145
lowerneck -18.892 -3.61595 -4.84724
upperneck 13.846 -3.84574 1.21518
head 7.47154 -1.98832 0.727429
rclavicle 4.26393e-014 8.94531e-015
rhumerus -45.9372 27.1401 -105.733
rradius 110.314
rwrist -0.125241
rhand -18.5628 14.2692
rfingers 7.12502
rthumb 7.72714 -15.5696
lclavicle 4.26393e-014 8.94531e-015
lhumerus -76.2596 -3.49149 96.2043
lradius 105.048
lwrist 11.7903
lhand -19.8228 -15.4907
lfingers 7.12502
lthumb 6.51085 14.3892
rfemur 3.10546 -1.8638 27.1006
rtibia 61.9694
rfoot 12.4754 -5.02005
rtoes -20.0648
lfemur -44.8945 0.624296 -22.6412
ltibia 46.9741
lfoot -12.5957 -9.94189
ltoes -9.9594
207
root -0.407977 17.1613 -33.2955 -173.879 -3.53775 -178.19
lowerback 8.81781 1.70263 2.19465
upperback -1.33962 2.54239 0.735639
thorax -6.29205 1.17621 -0.82009
lowerneck -18.762 -3.47773 -4.64882
upperneck 13.3996 -3.71342 1.23982
head 7.29457 -1.9079 0.724706
rclavicle 2.55935e-015 -3.37934e-015
rhumerus -46.1091 25.3281 -105.66
rradius 108.224
rwrist 0.46425
rhand -18.4123 13.7921
rfingers 7.12502
rthumb 7.87242 -16.0413
lclavicle 2.55935e-015 -3.37934e-015
lhumerus -74.6376 -3.53021 96.7811
lradius 104.8
lwrist 11.8092
lhand -19.7037 -15.6454
lfingers 7.12502
lthumb 6.62591 14.231
rfemur 1.05965 -3.1095 25.0942
rtibia 66.2376
rfoot 11.2159 -5.55705
rtoes -20.0336
lfemur -44.0731 -0.224686 -23.7249
ltibia 49.1473
lfoot -12.6876 -10.1089
ltoes -5.04199
208
root -0.38844 17.094 -33.7377 -174.07 -4.02561 -179.408
lowerback 9.41152 1.41727 0.923172
upperback -1.18527 2.01489 0.424063
thorax -6.51231 0.958369 -0.373912
lowerneck -18.669 -3.34466 -4.46682
upperneck 12.966 -3.58054 1.25401
head 7.12912 -1.82978 0.720084
rclavicle 1.04859e-014 2.5842e-015
rhumerus -46.2989 23.4047 -105.506
rradius 106.004
rwrist 0.771705
rhand -18.323 13.3046
rfingers 7.12502
rthumb 7.95862 -16.5255
lclavicle 1.04859e-014 2.5842e-015
lhumerus -72.7932 -3.73647 97.3969
lradius 104.414
lwrist 11.9398
lhand -19.6329 -15.7877
lfingers 7.12502
lthumb 6.69419 14.0864
rfemur -1.21148 -4.39956 22.9202
rtibia 70.3353
rfoot 9.74033 -5.87773
rtoes -19.906
lfemur -43.2704 -1.12765 -24.8887
ltibia 51.2133
lfoot -13.2474 -10.0774
ltoes -0.0428815
209
root -0.372965 17.0257 -34.1778 -174.08 -4.40452 -180.555
lowerback 9.80766 1.18041 -0.229878
upperback -1.06321 1.54413 0.119985
thorax -6.63541 0.763241 0.0184001
lowerneck -18.6409 -3.22077 -4.31167
upperneck 12.5839 -3.44933 1.25706
head 6.99255 -1.75567 0.714277
rclavicle -1.24737e-014 -2.5842e-015
rhumerus -46.5281 21.4042 -105.245
rradius 103.68
rwrist 0.74141
rhand -18.3376 12.8031
rfingers 7.12502
rthumb 7.94451 -17.0276
lclavicle -1.24737e-014 -2.5842e-015
lhumerus -70.706 -4.13832 98.0349
lradius 103.862
lwrist 12.2089
lhand -19.5977 -15.9347
lfingers 7.12502
lthumb 6.72818 13.9385
rfemur -3.73748 -5.63647 20.7787
rtibia 74.1996
rfoot 8.11705 -6.06259
rtoes -19.6451
lfemur -42.4831 -1.95513 -25.9876
ltibia 53.0934
lfoot -14.2772 -9.84774
ltoes 4.3777
210
root -0.362537 16.961 -34.6175 -173.922 -4.60977 -181.524
lowerback 9.98134 1.00825 -1.15488
upperback -0.976543 1.17949 -0.149809
thorax -6.65456 0.611217 0.310237
lowerneck -18.686 -3.11678 -4.19871
upperneck 12.2841 -3.33201 1.25744
head 6.8967 -1.69133 0.71103
rclavicle -2.41026e-014 -2.38542e-015
rhumerus -46.8198 19.3649 -104.854
rradius 101.283
rwrist 0.337252
rhand -18.4826 12.2878
rfingers 7.12502
rthumb 7.80454 -17.5482
lclavicle -2.41026e-014 -2.38542e-015
lhumerus -68.3791 -4.76689 98.6681
lradius 103.132
lwrist 12.6099
lhand -19.5982 -16.1222
lfingers 7.12502
lthumb 6.72771 13.7509
rfemur -6.52658 -6.75001 18.8343
rtibia 77.7625
rfoot 6.43337 -6.19515
rtoes -19.3217
lfemur -41.7116 -2.59978 -26.9203
ltibia 54.7453
lfoot -15.6633 -9.46257
ltoes 7.44791
